# Blender v2.93.0 OBJ File: 'HatStand.blend'
# www.blender.org
mtllib HatStand.mtl
o HatStand_Cylinder
v -0.077763 0.009010 -0.413139
v -0.005758 0.334367 -0.196873
v 0.214297 0.002423 -0.292134
v 0.130163 0.304286 -0.139210
v 0.335272 -0.000305 -0.000000
v 0.186464 0.291826 -0.000000
v 0.214297 0.002423 0.292134
v 0.130163 0.304286 0.139210
v -0.077763 0.009010 0.413139
v -0.005758 0.334367 0.196873
v -0.369822 0.015597 0.292134
v -0.141679 0.364447 0.139210
v -0.490797 0.018325 -0.000000
v -0.197979 0.376907 -0.000000
v -0.369822 0.015597 -0.292134
v -0.141679 0.364447 -0.139210
v 0.279474 0.271242 -0.292134
v -0.005758 0.334367 -0.413139
v 0.397621 0.245094 -0.000000
v 0.279474 0.271242 0.292134
v -0.005758 0.334367 0.413139
v -0.290990 0.397492 0.292134
v -0.409137 0.423639 -0.000000
v -0.290990 0.397492 -0.292134
v 0.125290 0.486295 -0.095123
v 0.032415 0.506850 -0.134524
v 0.163761 0.477781 -0.000000
v 0.125290 0.486295 0.095123
v 0.032415 0.506850 0.134524
v -0.060461 0.527404 0.095123
v -0.098931 0.535918 -0.000000
v -0.060461 0.527404 -0.095123
v 0.308713 1.144520 -0.131982
v 0.179850 1.173039 -0.186651
v 0.362090 1.132707 -0.000000
v 0.308713 1.144520 0.131982
v 0.179850 1.173039 0.186650
v 0.050986 1.201558 0.131982
v -0.002391 1.213371 -0.000000
v 0.050986 1.201558 -0.131982
v -0.117359 0.935166 0.437694
v -0.225955 1.777067 0.384951
v -0.117359 0.935166 -0.437693
v -0.225955 1.777067 -0.384949
v 0.638885 0.694366 0.421532
v 0.629297 1.771559 0.408582
v 0.638885 0.694366 -0.421531
v 0.629297 1.771559 -0.408581
v -0.216883 0.786538 0.000001
v -0.262384 1.352685 0.496888
v -0.351312 1.881235 0.000001
v -0.262384 1.352685 -0.496886
v 0.249004 0.758377 -0.480097
v 0.223226 1.897408 -0.475387
v 0.710309 1.258881 -0.491077
v 0.754772 0.473777 0.000001
v 0.708079 1.839631 0.000001
v 0.710309 1.258881 0.491078
v 0.249004 0.758377 0.480099
v 0.223226 1.897408 0.475388
v -0.493357 1.269306 0.000001
v 0.225470 1.307978 -0.609637
v 0.889884 1.118032 0.000001
v 0.225470 1.307978 0.609638
v 0.249036 0.560028 0.000001
v 0.198370 2.124028 0.000001
v -0.189202 0.818041 -0.246059
v -0.189202 0.818041 0.246061
v -0.166664 1.127075 0.515523
v -0.282101 1.584382 0.438435
v -0.307065 1.845891 0.242042
v -0.307065 1.845891 -0.242041
v -0.282101 1.584382 -0.438433
v -0.166664 1.127075 -0.515522
v 0.477939 0.706610 -0.473107
v 0.019225 0.856077 -0.473905
v -0.042070 1.856814 -0.438147
v 0.469067 1.857597 -0.463232
v 0.744781 1.553424 -0.463851
v 0.683445 0.913272 -0.357250
v 0.703689 0.562837 0.245707
v 0.703689 0.562837 -0.245705
v 0.683030 1.820095 -0.245020
v 0.683030 1.820095 0.245022
v 0.744781 1.553424 0.463852
v 0.683445 0.913272 0.357252
v 0.019225 0.856077 0.473907
v 0.477939 0.706610 0.473108
v 0.469067 1.857597 0.463234
v -0.042070 1.856814 0.438149
v -0.428539 1.276966 0.254375
v -0.492574 1.587947 0.000001
v -0.428539 1.276966 -0.254374
v -0.383451 0.995155 0.000001
v -0.091848 1.406759 -0.651390
v 0.232485 1.632741 -0.565390
v 0.497294 1.290498 -0.601650
v 0.240660 1.028390 -0.594792
v 0.808322 1.196898 -0.248969
v 0.853749 1.498113 0.000001
v 0.808322 1.196898 0.248970
v 0.855608 0.754258 0.000001
v 0.497294 1.290498 0.601651
v 0.232485 1.632741 0.565392
v -0.091848 1.406759 0.651392
v 0.240660 1.028390 0.594794
v 0.249036 0.609165 -0.267740
v 0.498184 0.497616 0.000001
v 0.249036 0.609165 0.267741
v 0.001908 0.648972 0.000001
v 0.206455 2.063353 -0.267185
v -0.099713 2.066816 0.000001
v 0.206455 2.063353 0.267186
v 0.478251 2.048533 0.000001
v -0.334817 1.015839 0.252999
v -0.429327 1.579416 0.248692
v -0.429327 1.579416 -0.248690
v -0.334817 1.015839 -0.252997
v -0.017839 1.147300 -0.637355
v -0.063986 1.624130 -0.543990
v 0.487352 1.609797 -0.571973
v 0.487779 0.969107 -0.577258
v 0.806289 0.806265 -0.217766
v 0.869799 1.513427 -0.256320
v 0.869799 1.513427 0.256321
v 0.806289 0.806265 0.217768
v 0.487779 0.969107 0.577259
v 0.487352 1.609797 0.571975
v -0.063986 1.624130 0.543992
v -0.017839 1.147300 0.637357
v 0.011124 0.689645 -0.257177
v 0.487001 0.557638 -0.254051
v 0.487001 0.557638 0.254052
v 0.011124 0.689645 0.257178
v 0.472421 2.000741 -0.257254
v -0.076411 2.009977 -0.256635
v -0.076411 2.009977 0.256636
v 0.472421 2.000741 0.257255
vt 1.000000 0.500000
vt 1.000000 1.000000
vt 0.875000 1.000000
vt 0.875000 0.500000
vt 0.750000 1.000000
vt 0.750000 0.500000
vt 0.625000 1.000000
vt 0.625000 0.500000
vt 0.500000 1.000000
vt 0.500000 0.500000
vt 0.375000 1.000000
vt 0.375000 0.500000
vt 0.250000 1.000000
vt 0.250000 0.500000
vt 0.125000 1.000000
vt 0.125000 0.500000
vt 0.000000 1.000000
vt 0.000000 0.500000
vt 0.750000 0.490000
vt 0.919706 0.419706
vt 0.990000 0.250000
vt 0.919706 0.080294
vt 0.750000 0.010000
vt 0.580294 0.080294
vt 0.510000 0.250000
vt 0.580294 0.419706
vt 0.250000 0.364367
vt 0.330870 0.330870
vt 0.419706 0.419706
vt 0.250000 0.490000
vt 0.364367 0.250000
vt 0.490000 0.250000
vt 0.330870 0.169130
vt 0.419706 0.080294
vt 0.250000 0.135633
vt 0.250000 0.010000
vt 0.169130 0.169130
vt 0.080294 0.080294
vt 0.135633 0.250000
vt 0.010000 0.250000
vt 0.169130 0.330870
vt 0.080294 0.419706
vt 0.375000 0.000000
vt 0.437500 0.000000
vt 0.437500 0.062500
vt 0.375000 0.062500
vt 0.500000 0.000000
vt 0.500000 0.062500
vt 0.500000 0.125000
vt 0.437500 0.125000
vt 0.375000 0.125000
vt 0.562500 0.000000
vt 0.562500 0.062500
vt 0.625000 0.000000
vt 0.625000 0.062500
vt 0.625000 0.125000
vt 0.562500 0.125000
vt 0.562500 0.187500
vt 0.500000 0.187500
vt 0.625000 0.187500
vt 0.625000 0.250000
vt 0.562500 0.250000
vt 0.500000 0.250000
vt 0.437500 0.187500
vt 0.375000 0.187500
vt 0.437500 0.250000
vt 0.375000 0.250000
vt 0.437500 0.312500
vt 0.375000 0.312500
vt 0.500000 0.312500
vt 0.500000 0.375000
vt 0.437500 0.375000
vt 0.375000 0.375000
vt 0.562500 0.312500
vt 0.625000 0.312500
vt 0.625000 0.375000
vt 0.562500 0.375000
vt 0.562500 0.437500
vt 0.500000 0.437500
vt 0.625000 0.437500
vt 0.625000 0.500000
vt 0.562500 0.500000
vt 0.500000 0.500000
vt 0.437500 0.437500
vt 0.375000 0.437500
vt 0.437500 0.500000
vt 0.375000 0.500000
vt 0.437500 0.562500
vt 0.375000 0.562500
vt 0.500000 0.562500
vt 0.500000 0.625000
vt 0.437500 0.625000
vt 0.375000 0.625000
vt 0.562500 0.562500
vt 0.625000 0.562500
vt 0.625000 0.625000
vt 0.562500 0.625000
vt 0.562500 0.687500
vt 0.500000 0.687500
vt 0.625000 0.687500
vt 0.625000 0.750000
vt 0.562500 0.750000
vt 0.500000 0.750000
vt 0.437500 0.687500
vt 0.375000 0.687500
vt 0.437500 0.750000
vt 0.375000 0.750000
vt 0.437500 0.812500
vt 0.375000 0.812500
vt 0.500000 0.812500
vt 0.500000 0.875000
vt 0.437500 0.875000
vt 0.375000 0.875000
vt 0.562500 0.812500
vt 0.625000 0.812500
vt 0.625000 0.875000
vt 0.562500 0.875000
vt 0.562500 0.937500
vt 0.500000 0.937500
vt 0.625000 0.937500
vt 0.625000 1.000000
vt 0.562500 1.000000
vt 0.500000 1.000000
vt 0.437500 0.937500
vt 0.375000 0.937500
vt 0.437500 1.000000
vt 0.375000 1.000000
vt 0.125000 0.500000
vt 0.187500 0.500000
vt 0.187500 0.562500
vt 0.125000 0.562500
vt 0.250000 0.500000
vt 0.250000 0.562500
vt 0.250000 0.625000
vt 0.187500 0.625000
vt 0.125000 0.625000
vt 0.312500 0.500000
vt 0.312500 0.562500
vt 0.312500 0.625000
vt 0.312500 0.687500
vt 0.250000 0.687500
vt 0.312500 0.750000
vt 0.250000 0.750000
vt 0.187500 0.687500
vt 0.125000 0.687500
vt 0.187500 0.750000
vt 0.125000 0.750000
vt 0.687500 0.500000
vt 0.687500 0.562500
vt 0.750000 0.500000
vt 0.750000 0.562500
vt 0.750000 0.625000
vt 0.687500 0.625000
vt 0.812500 0.500000
vt 0.812500 0.562500
vt 0.875000 0.500000
vt 0.875000 0.562500
vt 0.875000 0.625000
vt 0.812500 0.625000
vt 0.812500 0.687500
vt 0.750000 0.687500
vt 0.875000 0.687500
vt 0.875000 0.750000
vt 0.812500 0.750000
vt 0.750000 0.750000
vt 0.687500 0.687500
vt 0.687500 0.750000
vt 0.250000 0.364367
vt 0.330870 0.330870
vt 0.169130 0.330870
vt 0.135633 0.250000
vt 0.135633 0.250000
vt 0.169130 0.330870
vt 0.169130 0.169130
vt 0.330870 0.169130
vt 0.250000 0.135633
vt 0.364367 0.250000
vt 0.250000 0.135633
vt 0.169130 0.169130
vt 0.364367 0.250000
vt 0.330870 0.169130
vt 0.250000 0.364367
vt 0.330870 0.330870
vn 0.3762 -0.0869 -0.9225
vn 0.8983 -0.2228 -0.3787
vn 0.8983 -0.2228 0.3787
vn 0.3762 -0.0869 0.9225
vn -0.3771 0.0804 0.9227
vn -0.9063 0.1848 0.3801
vn -0.9063 0.1848 -0.3801
vn -0.3771 0.0804 -0.9227
vn -0.0225 -0.9997 0.0000
vn 0.2161 0.9764 0.0000
vn -0.6676 -0.4611 0.5846
vn -0.7531 -0.2719 0.5991
vn -0.9109 -0.3471 0.2231
vn -0.7783 -0.6010 0.1819
vn -0.8124 0.0387 0.5818
vn -0.7352 0.3608 0.5739
vn -0.8795 0.4168 0.2299
vn -0.9691 0.0023 0.2467
vn -0.9691 0.0023 -0.2467
vn -0.8795 0.4168 -0.2299
vn -0.7352 0.3608 -0.5739
vn -0.8124 0.0387 -0.5818
vn -0.7783 -0.6010 -0.1819
vn -0.9109 -0.3471 -0.2231
vn -0.7531 -0.2719 -0.5991
vn -0.6676 -0.4611 -0.5846
vn -0.5012 -0.4567 -0.7350
vn -0.6122 -0.2070 -0.7631
vn 0.1333 -0.0310 -0.9906
vn -0.1332 -0.4487 -0.8837
vn -0.5796 0.2916 -0.7610
vn -0.4357 0.3847 -0.8137
vn -0.1283 0.3662 -0.9217
vn 0.0707 0.2645 -0.9618
vn 0.0114 0.1141 -0.9934
vn 0.0559 0.3636 -0.9299
vn 0.4490 0.4086 -0.7946
vn 0.4308 0.0662 -0.9000
vn -0.0410 -0.3797 -0.9242
vn 0.0395 -0.0647 -0.9971
vn 0.5854 -0.2172 -0.7811
vn 0.5844 -0.1323 -0.8006
vn 0.8013 -0.1390 -0.5820
vn 0.8239 -0.1546 -0.5453
vn 0.9569 -0.0578 -0.2845
vn 0.8959 -0.3321 -0.2952
vn 0.8777 -0.1227 -0.4632
vn 0.7774 0.4967 -0.3859
vn 0.8895 0.4565 -0.0198
vn 0.9901 -0.0374 -0.1353
vn 0.9901 -0.0374 0.1353
vn 0.8895 0.4565 0.0198
vn 0.7774 0.4967 0.3859
vn 0.8777 -0.1228 0.4632
vn 0.8959 -0.3321 0.2952
vn 0.9569 -0.0578 0.2845
vn 0.8239 -0.1546 0.5453
vn 0.8013 -0.1390 0.5820
vn 0.5844 -0.1323 0.8006
vn 0.5854 -0.2172 0.7811
vn 0.0395 -0.0647 0.9971
vn -0.0410 -0.3797 0.9242
vn 0.4308 0.0662 0.9000
vn 0.4490 0.4086 0.7946
vn 0.0559 0.3636 0.9299
vn 0.0114 0.1141 0.9934
vn 0.0707 0.2645 0.9618
vn -0.1283 0.3662 0.9217
vn -0.4357 0.3847 0.8137
vn -0.5796 0.2916 0.7610
vn -0.1332 -0.4487 0.8837
vn 0.1333 -0.0310 0.9906
vn -0.6122 -0.2070 0.7631
vn -0.5012 -0.4567 0.7350
vn -0.4901 -0.6681 -0.5599
vn -0.3109 -0.7628 -0.5670
vn -0.3284 -0.9300 -0.1649
vn -0.5320 -0.8318 -0.1583
vn -0.1553 -0.8142 -0.5595
vn 0.0781 -0.8058 -0.5870
vn -0.0328 -0.9589 -0.2820
vn -0.2182 -0.9562 -0.1954
vn -0.2182 -0.9562 0.1954
vn -0.0328 -0.9589 0.2820
vn 0.0781 -0.8058 0.5870
vn -0.1553 -0.8142 0.5595
vn -0.5320 -0.8318 0.1583
vn -0.3284 -0.9300 0.1649
vn -0.3109 -0.7628 0.5670
vn -0.4901 -0.6681 0.5599
vn 0.5743 0.6870 -0.4451
vn 0.1834 0.7907 -0.5841
vn 0.2439 0.9499 -0.1954
vn 0.6582 0.7398 -0.1396
vn -0.1839 0.7486 -0.6371
vn -0.4746 0.6385 -0.6058
vn -0.5766 0.7859 -0.2234
vn -0.1861 0.9563 -0.2257
vn -0.1861 0.9563 0.2257
vn -0.5766 0.7859 0.2234
vn -0.4746 0.6385 0.6058
vn -0.1839 0.7486 0.6371
vn 0.6582 0.7398 0.1396
vn 0.2439 0.9499 0.1954
vn 0.1834 0.7907 0.5841
vn 0.5743 0.6870 0.4451
vn 0.4222 0.2241 -0.8784
vn -0.9150 0.1304 -0.3817
vn -0.2882 0.3813 -0.8784
vn -0.7906 0.4925 0.3638
vn 0.4222 0.2241 0.8784
vn 0.9246 0.1129 -0.3638
vn -0.7906 0.4925 -0.3638
vn -0.2882 0.3813 0.8784
vn 0.9246 0.1129 0.3638
vn -0.3879 0.0137 0.9216
vn 0.8846 -0.2679 0.3817
vn 0.3575 -0.1512 -0.9216
vn -0.3879 0.0137 -0.9216
vn -0.9150 0.1304 0.3817
vn 0.3575 -0.1512 0.9216
vn 0.8846 -0.2679 -0.3817
usemtl white
s off
f 1/1/1 18/2/1 17/3/1 3/4/1
f 3/4/2 17/3/2 19/5/2 5/6/2
f 5/6/3 19/5/3 20/7/3 7/8/3
f 7/8/4 20/7/4 21/9/4 9/10/4
f 9/10/5 21/9/5 22/11/5 11/12/5
f 11/12/6 22/11/6 23/13/6 13/14/6
f 13/14/7 23/13/7 24/15/7 15/16/7
f 15/16/8 24/15/8 18/17/8 1/18/8
f 1/19/9 3/20/9 5/21/9 7/22/9 9/23/9 11/24/9 13/25/9 15/26/9
f 2/27/10 4/28/10 17/29/10 18/30/10
f 4/28/10 6/31/10 19/32/10 17/29/10
f 6/31/10 8/33/10 20/34/10 19/32/10
f 8/33/10 10/35/10 21/36/10 20/34/10
f 10/35/10 12/37/10 22/38/10 21/36/10
f 12/37/10 14/39/10 23/40/10 22/38/10
f 14/39/10 16/41/10 24/42/10 23/40/10
f 16/41/10 2/27/10 18/30/10 24/42/10
f 41/43/11 69/44/11 115/45/11 68/46/11
f 69/44/12 50/47/12 91/48/12 115/45/12
f 115/45/13 91/48/13 61/49/13 94/50/13
f 68/46/14 115/45/14 94/50/14 49/51/14
f 50/47/15 70/52/15 116/53/15 91/48/15
f 70/52/16 42/54/16 71/55/16 116/53/16
f 116/53/17 71/55/17 51/56/17 92/57/17
f 91/48/18 116/53/18 92/57/18 61/49/18
f 61/49/19 92/57/19 117/58/19 93/59/19
f 92/57/20 51/56/20 72/60/20 117/58/20
f 117/58/21 72/60/21 44/61/21 73/62/21
f 93/59/22 117/58/22 73/62/22 52/63/22
f 49/51/23 94/50/23 118/64/23 67/65/23
f 94/50/24 61/49/24 93/59/24 118/64/24
f 118/64/25 93/59/25 52/63/25 74/66/25
f 67/65/26 118/64/26 74/66/26 43/67/26
f 43/67/27 74/66/27 119/68/27 76/69/27
f 74/66/28 52/63/28 95/70/28 119/68/28
f 119/68/29 95/70/29 62/71/29 98/72/29
f 76/69/30 119/68/30 98/72/30 53/73/30
f 52/63/31 73/62/31 120/74/31 95/70/31
f 73/62/32 44/61/32 77/75/32 120/74/32
f 120/74/33 77/75/33 54/76/33 96/77/33
f 95/70/34 120/74/34 96/77/34 62/71/34
f 62/71/35 96/77/35 121/78/35 97/79/35
f 96/77/36 54/76/36 78/80/36 121/78/36
f 121/78/37 78/80/37 48/81/37 79/82/37
f 97/79/38 121/78/38 79/82/38 55/83/38
f 53/73/39 98/72/39 122/84/39 75/85/39
f 98/72/40 62/71/40 97/79/40 122/84/40
f 122/84/41 97/79/41 55/83/41 80/86/41
f 75/85/42 122/84/42 80/86/42 47/87/42
f 47/87/43 80/86/43 123/88/43 82/89/43
f 80/86/44 55/83/44 99/90/44 123/88/44
f 123/88/45 99/90/45 63/91/45 102/92/45
f 82/89/46 123/88/46 102/92/46 56/93/46
f 55/83/47 79/82/47 124/94/47 99/90/47
f 79/82/48 48/81/48 83/95/48 124/94/48
f 124/94/49 83/95/49 57/96/49 100/97/49
f 99/90/50 124/94/50 100/97/50 63/91/50
f 63/91/51 100/97/51 125/98/51 101/99/51
f 100/97/52 57/96/52 84/100/52 125/98/52
f 125/98/53 84/100/53 46/101/53 85/102/53
f 101/99/54 125/98/54 85/102/54 58/103/54
f 56/93/55 102/92/55 126/104/55 81/105/55
f 102/92/56 63/91/56 101/99/56 126/104/56
f 126/104/57 101/99/57 58/103/57 86/106/57
f 81/105/58 126/104/58 86/106/58 45/107/58
f 45/107/59 86/106/59 127/108/59 88/109/59
f 86/106/60 58/103/60 103/110/60 127/108/60
f 127/108/61 103/110/61 64/111/61 106/112/61
f 88/109/62 127/108/62 106/112/62 59/113/62
f 58/103/63 85/102/63 128/114/63 103/110/63
f 85/102/64 46/101/64 89/115/64 128/114/64
f 128/114/65 89/115/65 60/116/65 104/117/65
f 103/110/66 128/114/66 104/117/66 64/111/66
f 64/111/67 104/117/67 129/118/67 105/119/67
f 104/117/68 60/116/68 90/120/68 129/118/68
f 129/118/69 90/120/69 42/121/69 70/122/69
f 105/119/70 129/118/70 70/122/70 50/123/70
f 59/113/71 106/112/71 130/124/71 87/125/71
f 106/112/72 64/111/72 105/119/72 130/124/72
f 130/124/73 105/119/73 50/123/73 69/126/73
f 87/125/74 130/124/74 69/126/74 41/127/74
f 43/128/75 76/129/75 131/130/75 67/131/75
f 76/129/76 53/132/76 107/133/76 131/130/76
f 131/130/77 107/133/77 65/134/77 110/135/77
f 67/131/78 131/130/78 110/135/78 49/136/78
f 53/132/79 75/137/79 132/138/79 107/133/79
f 75/137/80 47/87/80 82/89/80 132/138/80
f 132/138/81 82/89/81 56/93/81 108/139/81
f 107/133/82 132/138/82 108/139/82 65/134/82
f 65/134/83 108/139/83 133/140/83 109/141/83
f 108/139/84 56/93/84 81/105/84 133/140/84
f 133/140/85 81/105/85 45/107/85 88/142/85
f 109/141/86 133/140/86 88/142/86 59/143/86
f 49/136/87 110/135/87 134/144/87 68/145/87
f 110/135/88 65/134/88 109/141/88 134/144/88
f 134/144/89 109/141/89 59/143/89 87/146/89
f 68/145/90 134/144/90 87/146/90 41/147/90
f 48/81/91 78/148/91 135/149/91 83/95/91
f 78/148/92 54/150/92 111/151/92 135/149/92
f 135/149/93 111/151/93 66/152/93 114/153/93
f 83/95/94 135/149/94 114/153/94 57/96/94
f 54/150/95 77/154/95 136/155/95 111/151/95
f 77/154/96 44/156/96 72/157/96 136/155/96
f 136/155/97 72/157/97 51/158/97 112/159/97
f 111/151/98 136/155/98 112/159/98 66/152/98
f 66/152/99 112/159/99 137/160/99 113/161/99
f 112/159/100 51/158/100 71/162/100 137/160/100
f 137/160/101 71/162/101 42/163/101 90/164/101
f 113/161/102 137/160/102 90/164/102 60/165/102
f 57/96/103 114/153/103 138/166/103 84/100/103
f 114/153/104 66/152/104 113/161/104 138/166/104
f 138/166/105 113/161/105 60/165/105 89/167/105
f 84/100/106 138/166/106 89/167/106 46/101/106
usemtl black
f 4/28/107 2/27/107 26/168/107 25/169/107
f 32/170/108 31/171/108 39/172/108 40/173/108
f 2/27/109 16/41/109 32/170/109 26/168/109
f 14/39/110 12/37/110 30/174/110 31/171/110
f 10/35/111 8/33/111 28/175/111 29/176/111
f 6/31/112 4/28/112 25/169/112 27/177/112
f 16/41/113 14/39/113 31/171/113 32/170/113
f 12/37/114 10/35/114 29/176/114 30/174/114
f 8/33/115 6/31/115 27/177/115 28/175/115
f 30/174/116 29/176/116 37/178/116 38/179/116
f 28/175/117 27/177/117 35/180/117 36/181/117
f 25/169/118 26/168/118 34/182/118 33/183/118
f 26/168/119 32/170/119 40/173/119 34/182/119
f 31/171/120 30/174/120 38/179/120 39/172/120
f 29/176/121 28/175/121 36/181/121 37/178/121
f 27/177/122 25/169/122 33/183/122 35/180/122
